<svg viewBox="0 0 211 100" fill="none" xmlns="http://www.w3.org/2000/svg"><g clip-path="url(#clip0_1937_18051)">
<symbol id="logo">
<path id="pc-logo-bg" d="M4.39995 4.03003C4.14995 4.03003 3.90995 4.15003 3.72995 4.35003C3.54995 4.55003 3.44995 4.83003 3.44995 5.12003V60.83C3.44995 61.12 3.54995 61.4 3.72995 61.6C3.90995 61.81 4.14995 61.92 4.39995 61.92H25.94C27.11 61.92 28.2299 62.46 29.0499 63.42C29.8799 64.38 30.34 65.68 30.34 67.04V82.17C30.34 82.38 30.3899 82.59 30.49 82.77C30.59 82.95 30.7299 83.09 30.9 83.17C31.07 83.26 31.25 83.28 31.44 83.24C31.62 83.2 31.79 83.11 31.92 82.96L50.02 63.29C50.83 62.4 51.91 61.91 53.0299 61.91H195.67C195.92 61.91 196.16 61.79 196.34 61.59C196.52 61.38 196.62 61.11 196.62 60.82V5.12003C196.62 4.83003 196.52 4.55003 196.34 4.35003C196.16 4.14003 195.92 4.03003 195.67 4.03003H4.39995Z" fill="transparent"></path>
<path fill-rule="evenodd" clip-rule="evenodd" d="M28.5199 31.83V16.55H28.5299C28.5299 15.82 28.4099 15.09 28.1699 14.42C27.9299 13.75 27.5699 13.14 27.1299 12.62C26.6899 12.11 26.1599 11.7 25.5799 11.42C24.9999 11.14 24.3799 11 23.7499 11H10.2499C10.1399 11 10.0299 11.02 9.92992 11.07C9.82992 11.12 9.73992 11.19 9.65992 11.28C9.57992 11.38 9.51992 11.48 9.47992 11.6C9.43992 11.72 9.41992 11.84 9.41992 11.97V54.47C9.41992 54.73 9.49992 54.98 9.65992 55.16C9.81992 55.34 10.0299 55.44 10.2499 55.44H16.9399C17.1599 55.44 17.3699 55.34 17.5299 55.16C17.6799 54.98 17.7699 54.73 17.7699 54.47V37.39H23.7399C25.0099 37.39 26.2199 36.8 27.1199 35.76C28.0199 34.72 28.5199 33.3 28.5199 31.83ZM18.9599 30.44H17.7699V17.94H18.9599C19.1199 17.94 19.2699 17.98 19.4199 18.05C19.5699 18.12 19.6999 18.22 19.8099 18.35C19.9199 18.48 20.0099 18.63 20.0699 18.8C20.1299 18.97 20.1599 19.15 20.1599 19.33V29.05C20.1599 29.42 20.0299 29.77 19.8099 30.03C19.5799 30.29 19.2799 30.44 18.9599 30.44Z" fill="#000000"></path>
<path fill-rule="evenodd" clip-rule="evenodd" d="M45.3 11.01C45.93 11.01 46.55 11.15 47.13 11.43C47.71 11.71 48.24 12.12 48.68 12.63C49.12 13.15 49.48 13.76 49.72 14.43C49.96 15.1 50.08 15.83 50.08 16.56V49.9C50.08 51.37 49.58 52.79 48.68 53.83C47.78 54.87 46.57 55.46 45.3 55.46H35.74C34.47 55.46 33.26 54.87 32.36 53.83C31.46 52.79 30.96 51.37 30.96 49.9V16.56C30.96 15.09 31.46 13.67 32.36 12.63C33.26 11.59 34.47 11 35.74 11H45.3V11.01ZM41.72 19.34C41.72 18.97 41.59 18.62 41.37 18.36C41.15 18.1 40.84 17.95 40.53 17.95C40.22 17.95 39.91 18.1 39.69 18.36C39.47 18.62 39.34 18.97 39.34 19.34V47.12C39.34 47.49 39.47 47.84 39.69 48.1C39.91 48.36 40.22 48.51 40.53 48.51C40.84 48.51 41.15 48.36 41.37 48.1C41.59 47.84 41.72 47.49 41.72 47.12V19.34Z" fill="#000000"></path>
<path fill-rule="evenodd" clip-rule="evenodd" d="M70.8201 53.82C71.7201 52.78 72.2201 51.36 72.2201 49.89V16.56C72.2201 15.09 71.7201 13.67 70.8201 12.63C69.9201 11.59 68.7101 11 67.4401 11H53.9401C53.7201 11 53.5101 11.1 53.3501 11.28C53.2001 11.47 53.1101 11.71 53.1101 11.97V54.48C53.1101 54.74 53.1901 54.99 53.3501 55.17C53.5101 55.35 53.7201 55.45 53.9401 55.45H67.4401C68.7101 55.45 69.9201 54.86 70.8201 53.82ZM62.6601 48.5H61.4501V17.94H62.6501C62.8101 17.94 62.9601 17.98 63.1101 18.05C63.2601 18.12 63.3901 18.22 63.5001 18.35C63.6101 18.48 63.7001 18.63 63.7601 18.8C63.8201 18.97 63.8501 19.15 63.8501 19.33V47.11C63.8501 47.48 63.7201 47.83 63.5001 48.09C63.2801 48.35 62.9801 48.5 62.6601 48.5Z" fill="#000000"></path>
<path d="M75.2 49.9V16.56C75.2 15.09 75.7 13.67 76.6 12.63C77.5 11.59 78.71 11 79.9799 11H89.5399C90.8099 11 92.02 11.59 92.92 12.63C93.82 13.67 94.3199 15.09 94.3199 16.56V25.31C94.3199 25.44 94.2999 25.56 94.2599 25.68C94.2199 25.8 94.16 25.91 94.0799 26C93.9999 26.09 93.91 26.16 93.81 26.21C93.71 26.26 93.6 26.28 93.49 26.28H86.7999C86.6899 26.28 86.5799 26.25 86.4799 26.21C86.38 26.16 86.29 26.09 86.21 26C86.13 25.91 86.07 25.8 86.03 25.68C85.99 25.56 85.9699 25.44 85.9699 25.31V19.4C85.9699 19.03 85.86 18.68 85.64 18.41C85.42 18.14 85.13 17.98 84.81 17.96C84.6499 17.96 84.49 17.99 84.34 18.05C84.1899 18.12 84.0499 18.22 83.9399 18.35C83.8199 18.48 83.7299 18.63 83.67 18.81C83.61 18.98 83.5799 19.17 83.5799 19.35V47.07C83.5799 47.44 83.6899 47.79 83.91 48.06C84.13 48.33 84.42 48.49 84.74 48.51C84.9 48.51 85.06 48.48 85.21 48.42C85.36 48.36 85.4999 48.25 85.6099 48.12C85.7199 47.99 85.82 47.84 85.88 47.66C85.9399 47.49 85.9699 47.3 85.9699 47.12V41.15C85.9699 40.89 86.06 40.65 86.21 40.46C86.37 40.28 86.5799 40.18 86.7999 40.18H93.49C93.6 40.18 93.71 40.21 93.81 40.25C93.91 40.3 93.9999 40.37 94.0799 40.46C94.16 40.55 94.2199 40.66 94.2599 40.78C94.2999 40.9 94.3199 41.02 94.3199 41.15V49.9C94.3199 50.63 94.2 51.35 93.96 52.03C93.72 52.7 93.3699 53.32 92.92 53.83C92.4799 54.35 91.95 54.76 91.3699 55.03C90.7899 55.31 90.1699 55.45 89.5399 55.45H79.9799C79.35 55.45 78.7299 55.31 78.1499 55.03C77.5699 54.75 77.04 54.34 76.6 53.83C76.16 53.31 75.7999 52.7 75.56 52.03C75.32 51.36 75.2 50.63 75.2 49.9Z" fill="#000000"></path>
<path fill-rule="evenodd" clip-rule="evenodd" d="M104.18 48.51H107.79V48.5H107.81L108.31 54.57C108.33 54.81 108.43 55.04 108.58 55.2C108.73 55.36 108.93 55.45 109.14 55.45H114.6C114.72 55.45 114.83 55.42 114.94 55.36C115.05 55.31 115.14 55.22 115.22 55.12C115.3 55.01 115.36 54.89 115.39 54.76C115.42 54.63 115.43 54.49 115.42 54.35L110.85 11.85C110.82 11.61 110.72 11.4 110.57 11.24C110.42 11.09 110.22 11 110.02 11H101.94C101.74 11 101.54 11.08 101.39 11.24C101.23 11.4 101.14 11.62 101.11 11.85L96.54 54.35C96.52 54.49 96.53 54.63 96.57 54.76C96.6 54.9 96.66 55.02 96.74 55.12C96.82 55.22 96.91 55.3 97.02 55.36C97.12 55.42 97.24 55.45 97.36 55.45H102.83C103.04 55.45 103.24 55.36 103.39 55.2C103.54 55.04 103.64 54.82 103.66 54.58L104.18 48.51ZM105.97 26.29L107.11 40.18H104.83L105.97 26.29Z" fill="#000000"></path>
<path d="M125.75 24.16C125.74 25.46 126.17 26.7 126.94 27.63L135.3 37.35C135.69 37.81 136 38.35 136.2 38.94C136.41 39.54 136.5 40.17 136.49 40.82V49.85C136.49 51.32 135.99 52.74 135.09 53.78C134.19 54.82 132.98 55.41 131.71 55.41H122.15C121.52 55.41 120.9 55.27 120.32 54.99C119.74 54.71 119.21 54.3 118.77 53.79C118.33 53.27 117.97 52.66 117.73 51.99C117.49 51.32 117.37 50.59 117.37 49.86V41.11C117.37 40.85 117.46 40.61 117.62 40.42C117.78 40.24 117.99 40.14 118.21 40.14H124.9C125.12 40.14 125.34 40.24 125.49 40.42C125.65 40.6 125.73 40.85 125.73 41.11V47.04C125.73 47.38 125.83 47.72 126.02 47.98C126.21 48.24 126.48 48.41 126.77 48.47C126.94 48.5 127.11 48.47 127.27 48.42C127.43 48.36 127.58 48.27 127.71 48.14C127.84 48.01 127.94 47.85 128.01 47.67C128.08 47.49 128.12 47.29 128.12 47.1V42.24C128.12 40.94 127.7 39.7 126.93 38.77L118.57 29.05C117.79 28.12 117.36 26.87 117.37 25.58V16.55C117.37 15.82 117.49 15.1 117.73 14.42C117.97 13.75 118.32 13.13 118.77 12.62C119.21 12.1 119.74 11.69 120.32 11.42C120.9 11.14 121.52 11 122.15 11H131.71C132.98 11 134.19 11.59 135.09 12.63C135.99 13.67 136.49 15.09 136.49 16.56V25.31C136.49 25.57 136.4 25.81 136.25 26C136.09 26.18 135.88 26.28 135.66 26.28H128.97C128.75 26.28 128.54 26.18 128.38 26C128.22 25.82 128.13 25.57 128.13 25.31V19.4C128.13 19.03 128.02 18.68 127.8 18.41C127.58 18.14 127.29 17.98 126.97 17.96C126.81 17.96 126.65 17.99 126.5 18.05C126.35 18.12 126.21 18.22 126.1 18.35C125.99 18.48 125.89 18.63 125.83 18.81C125.77 18.98 125.74 19.17 125.74 19.35V24.16H125.75Z" fill="#000000"></path>
<path d="M158.09 16.97V11.97H158.11C158.11 11.84 158.09 11.72 158.05 11.6C158.01 11.48 157.95 11.37 157.87 11.28C157.79 11.19 157.7 11.12 157.6 11.07C157.5 11.03 157.39 11 157.28 11H139.83C139.72 11 139.61 11.02 139.51 11.07C139.41 11.12 139.32 11.19 139.24 11.28C139.16 11.37 139.1 11.48 139.06 11.6C139.02 11.72 139 11.84 139 11.97V16.97C139 17.23 139.08 17.48 139.24 17.66C139.4 17.84 139.61 17.94 139.83 17.94H144.37V54.47C144.37 54.6 144.39 54.72 144.43 54.84C144.47 54.96 144.53 55.07 144.61 55.16C144.69 55.25 144.78 55.32 144.88 55.37C144.98 55.41 145.09 55.44 145.2 55.44H151.89C152 55.44 152.11 55.42 152.21 55.37C152.31 55.32 152.4 55.25 152.48 55.16C152.56 55.07 152.62 54.96 152.66 54.84C152.7 54.72 152.72 54.6 152.72 54.47V17.94H157.26C157.48 17.94 157.69 17.84 157.85 17.66C158 17.47 158.09 17.23 158.09 16.97Z" fill="#000000"></path>
<path d="M173.5 55.45H161.43C161.21 55.45 161 55.35 160.84 55.17C160.68 54.99 160.6 54.74 160.6 54.48V11.97C160.6 11.84 160.62 11.72 160.66 11.6C160.7 11.48 160.76 11.37 160.84 11.28C160.92 11.19 161.01 11.12 161.11 11.07C161.21 11.02 161.32 11 161.43 11H168.12C168.34 11 168.55 11.1 168.71 11.28C168.87 11.46 168.95 11.71 168.95 11.97V48.5H173.49C173.6 48.5 173.71 48.53 173.81 48.57C173.91 48.62 174 48.69 174.08 48.78C174.16 48.87 174.22 48.98 174.26 49.1C174.3 49.22 174.32 49.34 174.32 49.47V54.47C174.32 54.6 174.3 54.72 174.26 54.84C174.22 54.96 174.16 55.06 174.08 55.16C174 55.25 173.91 55.32 173.81 55.37C173.71 55.42 173.6 55.44 173.49 55.44L173.5 55.45Z" fill="#000000"></path>
<path d="M190.3 11H177.63C177.52 11 177.41 11.02 177.31 11.07C177.21 11.12 177.12 11.19 177.04 11.28C176.96 11.37 176.9 11.48 176.86 11.6C176.82 11.72 176.8 11.84 176.8 11.97V54.46C176.8 54.72 176.88 54.97 177.04 55.15C177.2 55.33 177.41 55.43 177.63 55.43H190.3C190.41 55.43 190.52 55.41 190.62 55.36C190.72 55.31 190.81 55.24 190.89 55.15C190.97 55.06 191.03 54.95 191.07 54.83C191.11 54.71 191.13 54.59 191.13 54.46V49.46C191.13 49.2 191.05 48.95 190.89 48.77C190.73 48.59 190.52 48.49 190.3 48.49H185.16V37.38H190.3C190.52 37.38 190.73 37.28 190.89 37.1C191.04 36.91 191.13 36.67 191.13 36.41V30.02C191.13 29.76 191.05 29.51 190.89 29.33C190.73 29.15 190.52 29.05 190.3 29.05H185.16V17.94H190.3C190.41 17.94 190.52 17.92 190.62 17.87C190.72 17.82 190.81 17.75 190.89 17.66C190.97 17.57 191.03 17.46 191.07 17.34C191.11 17.22 191.13 17.1 191.13 16.97V11.97C191.13 11.71 191.05 11.46 190.89 11.28C190.73 11.1 190.52 11 190.3 11Z" fill="#000000"></path>
<path fill-rule="evenodd" clip-rule="evenodd" d="M198.8 1.52L209.64 14.12H209.65C210.08 14.6 210.43 15.17 210.66 15.81C210.89 16.44 211.01 17.13 211.01 17.82V73.53C211.01 74.89 210.54 76.19 209.72 77.15C208.9 78.11 207.78 78.65 206.61 78.65H63.97C63.74 78.65 63.5 78.76 63.33 78.95L45.23 98.62C44.42 99.51 43.35 100.01 42.24 100.01C41.61 100.01 40.98 99.85 40.41 99.55C39.83 99.25 39.32 98.82 38.9 98.27L28.32 85.97C27.87 85.5 27.51 84.91 27.26 84.26C27.01 83.61 26.89 82.9 26.89 82.19V78.66H15.33C14.67 78.66 14.01 78.49 13.42 78.15C12.83 77.81 12.3 77.32 11.89 76.72L1.66 64.83C1.14 64.35 0.73 63.74 0.44 63.05C0.15 62.35 0 61.6 0 60.83V5.12C0 3.76 0.47 2.46 1.29 1.5C2.11 0.54 3.23 0 4.4 0H195.67C196.82 0 197.92 0.52 198.74 1.45L198.76 1.48L198.8 1.52ZM4.4 61.92H25.94V61.93H25.95C27.12 61.93 28.23 62.47 29.06 63.43C29.88 64.39 30.35 65.69 30.35 67.05V82.18C30.35 82.39 30.4 82.6 30.5 82.78C30.6 82.95 30.74 83.09 30.91 83.18C31.08 83.26 31.27 83.29 31.45 83.25C31.63 83.21 31.8 83.12 31.93 82.97L50.03 63.3C50.85 62.41 51.92 61.92 53.04 61.92H195.67C195.92 61.92 196.16 61.81 196.34 61.6C196.52 61.4 196.62 61.12 196.62 60.83V5.12C196.62 4.83 196.52 4.56 196.34 4.35C196.16 4.15 195.92 4.03 195.67 4.03H4.4C4.15 4.03 3.91 4.14 3.73 4.35C3.55 4.55 3.45 4.83 3.45 5.12V60.83C3.45 61.12 3.55 61.39 3.73 61.6C3.91 61.8 4.15 61.92 4.4 61.92Z" fill="var(--color)"></path></g><defs><clipPath id="clip0_1937_18051"><rect width="211" height="100" fill="white"></rect></clipPath></defs>
</symbol>
</svg>